<svg width="20" height="24" viewBox="0 0 20 24" fill="none" xmlns="http://www.w3.org/2000/svg">
<path fill-rule="evenodd" clip-rule="evenodd" d="M13.167 4.24004C13.998 3.25378 14.4149 2.18824 14.4149 1.04702V1.04701C14.4149 0.895646 14.4079 0.743074 14.391 0.590515C13.8121 0.620545 13.1965 0.795936 12.5458 1.11308C11.8936 1.43504 11.3559 1.83862 10.933 2.32401C10.0861 3.28266 9.60918 4.45511 9.60918 5.55067C9.60918 5.7021 9.6189 5.84619 9.63566 5.9831C10.951 6.09001 12.1641 5.4125 13.167 4.24004ZM17.5912 20.5792C18.0644 19.9045 18.4729 19.1707 18.818 18.3734C18.9603 18.0354 19.0942 17.6833 19.2208 17.3156C18.6364 17.0705 18.1109 16.7255 17.6405 16.279C16.6024 15.3169 16.0742 14.1053 16.0588 12.6493C16.0419 10.78 16.8911 9.32287 18.6081 8.28253C17.6489 6.91907 16.2066 6.16227 14.2867 6.00733C13.5782 5.94718 12.7134 6.09986 11.6887 6.46862C10.6051 6.86625 9.96595 7.0657 9.77735 7.0657C9.52509 7.0657 8.9497 6.89512 8.05359 6.55876C7.15494 6.22354 6.4318 6.05297 5.88036 6.05297C4.87255 6.06973 3.93672 6.33172 3.07061 6.84583C2.2045 7.35995 1.51249 8.06026 0.992309 8.94806C0.330442 10.0533 0 11.3723 0 12.9016C0 14.2366 0.245085 15.6155 0.733989 17.0396C1.1905 18.358 1.77321 19.5144 2.48198 20.5116C3.14259 21.4455 3.69403 22.1047 4.1349 22.4892C4.82565 23.1315 5.51766 23.4371 6.21193 23.4076C6.66844 23.3921 7.26551 23.2357 8.00669 22.9357C8.74673 22.6371 9.4386 22.4892 10.0837 22.4892C10.6988 22.4892 11.3715 22.6371 12.1035 22.9357C12.8331 23.2357 13.4599 23.3836 13.9797 23.3836C14.7037 23.3667 15.3798 23.0695 16.0108 22.4892C16.4179 22.1356 16.9461 21.499 17.5912 20.5792Z" fill="#00D54B"/>
</svg>
