<svg width="22" height="22" viewBox="0 0 22 22" fill="none" xmlns="http://www.w3.org/2000/svg">
<g clip-path="url(#clip0_114_56)">
<path fill-rule="evenodd" clip-rule="evenodd" d="M6.9273 1.06331C7.99265 1.01579 8.33324 1.00391 11.0422 1.00391C13.7511 1.00391 14.0917 1.01579 15.161 1.05935C16.2263 1.10688 16.9511 1.27717 17.5847 1.52272C18.2382 1.78014 18.7966 2.12074 19.3511 2.67519C19.9055 3.22965 20.2501 3.7841 20.5035 4.44153C20.7491 5.07915 20.9194 5.80391 20.9669 6.86529C21.0144 7.93064 21.0263 8.26727 21.0263 10.9801C21.0263 13.693 21.0144 14.0296 20.9669 15.095C20.9194 16.1603 20.7491 16.8851 20.5035 17.5188C20.2461 18.1722 19.9055 18.7306 19.3511 19.2851C18.7966 19.8396 18.2422 20.1841 17.5847 20.4376C16.9471 20.6831 16.2224 20.8534 15.161 20.9009C14.0956 20.9485 13.759 20.9603 11.0461 20.9603C8.33324 20.9603 7.99661 20.9485 6.93126 20.9009C5.86592 20.8534 5.14117 20.6831 4.5075 20.4376C3.85404 20.1801 3.29562 19.8396 2.74117 19.2851C2.18671 18.7306 1.84216 18.1762 1.58869 17.5188C1.34315 16.8811 1.17285 16.1564 1.12532 15.095C1.0778 14.0296 1.06592 13.6891 1.06592 10.9801C1.06592 8.27123 1.0778 7.93064 1.12532 6.86925C1.17285 5.80391 1.34315 5.07915 1.58869 4.44549C1.84612 3.79203 2.18671 3.23361 2.74117 2.67915C3.29562 2.1247 3.85008 1.78014 4.5075 1.52668C5.14117 1.28113 5.86592 1.11084 6.9273 1.06331ZM15.0738 2.86133C14.0204 2.81381 13.7075 2.80193 11.0422 2.80193C8.37681 2.80193 8.06394 2.80985 7.01047 2.86133C6.03621 2.9049 5.50948 3.07123 5.15701 3.20589C4.68968 3.3841 4.35701 3.60193 4.00849 3.95044C3.65998 4.29896 3.44612 4.63163 3.26394 5.09896C3.12532 5.45143 2.96295 5.97816 2.91938 6.95242C2.87186 8.00589 2.85998 8.31876 2.85998 10.9841C2.85998 13.6495 2.87186 13.9623 2.91938 15.0158C2.96295 15.99 3.12928 16.5168 3.26394 16.8693C3.44216 17.3366 3.65998 17.6693 4.00849 18.0178C4.35701 18.3663 4.68968 18.5801 5.15701 18.7623C5.50948 18.9009 6.03621 19.0633 7.01047 19.1069C8.06394 19.1544 8.37681 19.1663 11.0422 19.1663C13.7075 19.1663 14.0204 19.1544 15.0738 19.1069C16.0481 19.0633 16.5748 18.897 16.9273 18.7623C17.3946 18.5841 17.7273 18.3663 18.0758 18.0178C18.4243 17.6693 18.6382 17.3366 18.8204 16.8693C18.959 16.5168 19.1214 15.99 19.1649 15.0158C19.2125 13.9623 19.2243 13.6495 19.2243 10.9841C19.2243 8.31876 19.2125 8.00589 19.1649 6.95242C19.1214 5.97816 18.955 5.45143 18.8204 5.09896C18.6422 4.63163 18.4243 4.29896 18.0758 3.95044C17.7273 3.60193 17.3946 3.38806 16.9273 3.20589C16.5748 3.06727 16.0481 2.9049 15.0738 2.86133Z" fill="white"/>
<path fill-rule="evenodd" clip-rule="evenodd" d="M5.91736 10.9802C5.91736 8.14854 8.21439 5.85547 11.0421 5.85547C13.8699 5.85547 16.1669 8.1525 16.1669 10.9802C16.1669 13.8079 13.8699 16.105 11.0421 16.105C8.21439 16.105 5.91736 13.8119 5.91736 10.9802ZM7.71538 10.9802C7.71538 12.8178 9.20449 14.307 11.0421 14.307C12.8798 14.307 14.3689 12.8178 14.3689 10.9802C14.3689 9.1426 12.8798 7.65349 11.0421 7.65349C9.20449 7.65349 7.71538 9.1426 7.71538 10.9802Z" fill="white"/>
<path d="M16.3689 6.8496C17.0294 6.8496 17.5649 6.31411 17.5649 5.65356C17.5649 4.993 17.0294 4.45752 16.3689 4.45752C15.7083 4.45752 15.1729 4.993 15.1729 5.65356C15.1729 6.31411 15.7083 6.8496 16.3689 6.8496Z" fill="white"/>
</g>
<defs>
<clipPath id="clip0_114_56">
<rect width="21" height="21" fill="white" transform="translate(0.5 0.5)"/>
</clipPath>
</defs>
</svg>
