<svg width="1366" height="298" viewBox="0 0 1366 298" fill="none" xmlns="http://www.w3.org/2000/svg">
<g opacity="0.3">
<path opacity="0.3" d="M2092.1 1.80005L1945.7 1.60005L1877.5 1.70005L1674.4 2.30005C1658.4 2.30005 1589.7 2.10005 1583.3 2.30005C1576.9 2.50005 1442.5 2.30005 1425.1 2.30005C1407.7 2.30005 1108.6 2.70005 1097.7 2.50005C1086.8 2.30005 995.7 2.50005 982.9 2.50005C970.2 2.50005 789.4 2.90005 764.7 2.70005C740 2.50005 565.3 2.70005 565.3 2.70005H241.8L170.9 3.00005C51.6 3.40005 -13.8 3.60005 -25.3 3.50005C-42.5 3.30005 -172.4 3.50005 -183.6 3.50005L-244.1 3.30005V1.20005L-60.2 0.900049H241.8L367 1.20005L646.7 0.900049C653.6 0.900049 917.9 0.400049 924.1 0.700049C930.2 0.900049 1133.9 0.700049 1133.9 0.700049L1410.4 0.500049L1646 0.300049H2092.1V1.80005Z" fill="black"/>
<path opacity="0.3" d="M83.4 495.7L157.5 427.4C162.6 422.6 205.4 381.7 209.3 378.2L234.4 354.8L266.9 324.4L316.5 277.2C318.5 275.3 351.2 243.8 356 239.5C360.8 235.2 379.8 217.3 383.7 213.6C387.6 209.9 418.8 180.7 425.8 173.8C432.8 166.9 457.6 143.5 462.5 138.9L478.5 123.8L500.6 102.9L530 74.7L572.4 34.6L599 9.8L606.2 3L602.8 3.1L539.8 62.8C532.3 69.8 504.7 96.5 500.4 100.5C496.2 104.5 487.8 112.9 479.8 120C471.8 127.1 451.5 147 448.4 149.9L428.8 168.2C427.9 169 400.3 195.7 392.3 203C351.452 241.07 310.851 279.404 270.5 318L192.7 391.3C175.8 406.9 163.7 418.3 156.2 425.3C145.1 435.8 88.9 487.2 86.3 489.6L79.7 495.9L83.4 495.7Z" fill="black"/>
<path opacity="0.3" d="M-244.1 55.1001L-97.7 55.4001L-29.5 55.3001L173.6 54.7001C189.6 54.7001 258.3 54.9001 264.7 54.7001C271.1 54.5001 405.5 54.7001 422.9 54.7001C440.3 54.7001 739.3 54.2001 750.2 54.5001C761.1 54.7001 852.2 54.5001 865 54.5001C877.7 54.5001 1058.5 54.1001 1083.2 54.3001C1108 54.5001 1282.6 54.3001 1282.6 54.3001H1606.1L1677 53.9001C1796.3 53.5001 1861.7 53.3001 1873.2 53.4001C1890.4 53.6001 2020.3 53.4001 2031.5 53.4001L2092 53.6001V56.0001L1908.1 56.3001H1606.1L1480.9 56.0001L1201.2 56.3001C1194.3 56.3001 930 56.8001 923.8 56.6001C917.7 56.3001 714 56.6001 714 56.6001L437.7 56.7001L202.1 56.9001H-244L-244.1 55.1001ZM-243.1 21.7001L-96.8 21.9001L-28.6 21.8001L174.4 21.3001H423.7C441.1 21.3001 740 20.9001 750.8 21.1001C761.6 21.3001 852.8 21.1001 865.5 21.1001C878.2 21.1001 1058.9 20.8001 1083.6 20.9001C1108.4 21.1001 1282.9 20.9001 1282.9 20.9001H1606.3L1677.2 20.6001C1796.5 20.3001 1861.8 20.1001 1873.3 20.2001H2031.5L2092 20.4001V22.2001L1908.2 22.5001H1606.3L1481.2 22.2001L1201.6 22.5001C1194.7 22.5001 930.5 22.9001 924.4 22.7001C918.3 22.5001 714.7 22.7001 714.7 22.7001L438.3 22.9001L202.8 23.1001H-243.2L-243.1 21.7001ZM-242.8 285.8L-96.5 286.5L-28.3 286.6H174.8C190.7 286.6 259.4 287 265.9 286.9C272.4 286.8 406.6 287.3 424 287.4C441.4 287.5 740.2 287.8 751.1 288.1C761.9 288.4 853.1 288.4 865.8 288.4C1004.93 288.407 1144.07 288.74 1283.2 289.4L1606.5 290.3L1677.4 290.1C1796.7 290 1862.1 290.1 1873.5 290.2C1890.6 290.4 2020.5 290.6 2031.7 290.7L2092.3 291.1V293.3L1908 293.2L1606.2 292.3L1481.2 291.6L1201.7 291.1C1194.8 291.1 930.6 290.8 924.5 290.5C918.4 290.2 714.8 289.9 714.8 289.9L438.4 289.3L203 288.8L-90.7 287.9L-242.8 287.5V285.8ZM-243.9 97.0001C-243.4 101.3 287.5 97.0001 375.6 97.0001L830.2 97.4001C878.3 97.4001 998.1 97.0001 998.1 97.0001C998.1 97.0001 1374.5 96.4001 1416.3 96.7001C1458.2 97.0001 1780.8 97.0001 1799 96.7001C1896.67 96.3092 1994.33 96.4092 2092 97.0001V94.4001C2021.9 94.2001 1962.3 94.3001 1922.8 94.6001C1863.6 94.9001 1531.6 95.2001 1506.2 95.2001L1189.4 94.9001L1101.6 95.2001L904.1 94.9001H767.2L476.5 95.1001C438 95.1001 349.7 95.1001 288.9 94.8001C228.1 94.5001 101 94.5001 60.1 94.5001H-243.9V97.0001ZM2091.9 176.8L1959.1 176.2H1897.2L1712.8 176.3C1698.3 176.3 1635.9 175.9 1630.1 176.1C1624.3 176.3 1502.3 175.7 1486.5 175.7C1470.7 175.7 1199.3 175.4 1189.5 175.1C1179.7 174.8 1096.9 174.8 1085.4 174.8C1073.9 174.8 909.8 174.7 887.3 174.5C864.9 174.2 706.3 174 706.3 174L412.7 173.2L348.3 173.4C241.033 173.66 133.766 173.527 26.5 173C19.7 173 -214 172.9 -243.8 172.6L-243.5 170.3L138.9 170.4L413 171.2L526.6 171.8L780.5 172.2C786.8 172.2 1026.7 172.4 1032.3 172.7C1037.8 173 1222.7 173.2 1222.7 173.2C1377.63 173.644 1532.57 173.944 1687.5 174.1L1954.3 174.8L2092.5 175.2C2091.9 176.3 2091.9 176.8 2091.9 176.8Z" fill="black"/>
<path opacity="0.3" d="M1336.5 1.7L1366.3 36.3C1372.2 43 1395.2 70.2 1396.8 72L1411.7 89.3L1438.3 119.8L1461.7 146.7C1463.9 149.2 1500.4 191.7 1504.8 196.6C1530.67 225.995 1556.28 255.63 1581.6 285.5L1620.7 330.9L1656.7 372L1706.5 429.5L1738.6 466.8L1762.1 493.9C1762.5 494.4 1764.2 494.7 1767.1 494.8L1721.9 443C1714.58 434.773 1707.35 426.472 1700.2 418.1L1668.1 380.8L1638.8 347.5C1636.2 344.6 1593.7 295.5 1591.8 293.7C1589.9 291.9 1555 251.1 1552.5 248.3C1550.1 245.5 1520 211.4 1518.6 209.6C1488.5 174.435 1458.13 139.501 1427.5 104.8L1379.8 49.4L1353.6 19L1337.7 0.8L1336.5 1.7ZM1529.9 2.1L1563.4 28.9C1570 34.1 1595.9 55.3 1597.7 56.7L1614.4 70.1C1633.11 84.8647 1651.84 99.5981 1670.6 114.3C1673.1 116.2 1714.1 149.3 1719.1 152.9C1724 156.6 1763.4 187.8 1764.6 188.8L1805.4 221.8L1849.3 257L1889.7 288.7L1945.7 333.3L1981.8 362.2L2092 449.6V444.8L1962.8 342.4C1950.8 333.1 1942.7 326.7 1938.4 323.2C1926.41 313.482 1914.37 303.815 1902.3 294.2L1869.4 268.5C1866.5 266.2 1818.7 228.3 1816.7 227C1814.7 225.7 1775.3 194 1772.6 191.9C1769.9 189.8 1736.1 163.5 1734.5 162.1C1700.72 134.663 1666.62 107.628 1632.2 81L1578.5 38L1549 14.5L1531.2 0.5L1529.9 2.1ZM407.9 3.1L374 29.4L339.3 56.6L322.4 69.8L292.2 93L265.6 113.4L216.7 151.4C211.7 155.1 172 185.7 170.7 186.7C169.5 187.7 132.2 217 129.4 219L85 253.6L44.3 284.8L-12.2 328.6L-48.7 357L-75.3 377.6C-75.8 378 -220.7 496.3 -223.6 495.8L-29.1 338L-4.5 319.1C-0.199997 315.6 12 306.2 32 290.7L65.1 265.4C68 263.2 116.3 225.8 118.3 224.5C120.3 223.2 160.1 192.1 162.9 190L201.3 160.7C235.585 133.909 270.019 107.308 304.6 80.9L358.8 38.7C374.679 26.3298 390.612 14.0297 406.6 1.8L407.9 3.1ZM1131.7 1.7L1143.6 32.6L1149.5 47L1167.2 90C1168.5 93.4 1174 107.9 1174.8 109.3C1179.33 120.414 1183.73 131.581 1188 142.8C1189.5 146.5 1215 209.8 1215.6 212C1216.2 214.3 1224.1 233.6 1225.2 236.3C1226.3 239 1241.9 277.3 1243.7 282.5C1258.22 319.373 1272.75 356.239 1287.3 393.1L1293.7 408.1C1304.2 433.4 1309.9 447.2 1310.7 449.6C1311.9 453.2 1323 480.7 1323.9 483.1L1328.7 495.9L1325.8 495.6L1310 456.7L1284.8 392.8L1274.8 366.4L1251 307.2C1250.4 305.7 1227.7 249.8 1227.5 248.5C1227.3 247.2 1210 204.1 1210 204.1L1186.6 145.6L1166.7 95.8L1142.2 33.7L1129.5 1.5L1131.7 1.7ZM936.7 495.8L936.6 369.1L937 271.6C937 261.2 936.6 235.6 936.6 235.6C936.6 235.6 936 154.9 936.3 145.9C936.6 136.9 936.6 67.8 936.3 63.9C935.909 42.9672 936.009 22.0281 936.6 1.1L933.9 2.1C933.7 17.1 933.7 28.9 933.9 37.3C934.3 50 934.5 121.2 934.5 126.6L934.2 194.5L934.5 213.3L934.2 255.6V284.9L934.5 347.2C934.5 355.4 934.5 374.4 934.2 387.4C933.9 400.4 933.9 427.7 933.9 436.4V473.8L934 495.5C935 495.8 936.1 495.8 936.7 495.8ZM513.9 495.8C515 495.8 569.9 382.2 578.9 363.6L625.7 268.2C630.6 258.1 642.5 232.6 642.5 232.6C642.5 232.6 680.4 152.9 685 144.3C689.5 135.7 722.5 67.8 724.1 63.7C733.653 42.9849 743.723 22.5119 754.3 2.3L751.7 1.4C744.3 16 738.7 27.5 734.9 36C729.1 48.7 695.4 118.8 692.8 124.2L660.2 190.6L651.5 209.3L631.1 250.6L617.1 279.4L587.7 340.9C581.364 354.031 574.897 367.098 568.3 380.1C560.319 396.044 552.452 412.044 544.7 428.1L526.9 464.8L511.2 495.8H513.9Z" fill="black"/>
</g>
</svg>
