<svg width="1366" height="750" viewBox="0 0 1366 750" fill="none" xmlns="http://www.w3.org/2000/svg">
<g opacity="0.5">
<path d="M461.069 124.471L96.4985 -296.644L461.069 124.471ZM522.678 133.63L463.977 42.0566L522.678 133.63ZM573.175 101.375L480.833 -161.809L573.175 101.375ZM641.218 177.85L614.154 -13.9031L641.218 177.85ZM684.859 140.9L696.935 -17.9077L684.859 140.9ZM728.287 104.694L823.065 -296.151L728.287 104.694ZM773.735 143.595L982.46 -296.151L773.735 143.595ZM857.654 113.29L1077.61 -177.603L857.654 113.29ZM1007.62 71.2609L1361.74 -235.124L1007.62 71.2609ZM993.062 163.793L1360.5 -61.7387L993.062 163.793ZM904.739 280.281L1365.81 113.75L904.739 280.281ZM1062.08 310.647L1266.7 283.661L1062.08 310.647ZM965.023 385.277L1360.5 415.461L965.023 385.277ZM988.653 441.439L1238.85 500.647L988.653 441.439ZM1062.26 549.321L1360.5 691.508L1062.26 549.321ZM1068.49 669.535L1360.5 893.664L1068.49 669.535ZM810.957 527.348L1275.47 1064.64L810.957 527.348ZM821.132 612.89L1104.05 1064.64L821.132 612.89ZM761.188 613.558L896.394 988.618L761.188 613.558ZM690.839 530.032L766.232 1064.64L690.839 530.032ZM654.657 577.704L622.462 1064.63L654.657 577.704ZM600.847 650.646L505.405 1064.64L600.847 650.646ZM581.718 552.701L400.271 940.306L581.718 552.701ZM433.085 673.846L139.444 1064.63L433.085 673.846ZM416.678 582.245L138.469 825.072L416.678 582.245ZM232.432 636.561L87.3147 727.116L232.432 636.561ZM282.77 504.904L0.180719 604.174L282.77 504.904ZM371.531 407.211L84.4943 447.071L371.531 407.211ZM291.412 337.868L83.3169 321.494L291.412 337.868ZM397.368 303.542L0.180719 210.637L397.368 303.542ZM273.614 180.611L49.7087 74.0493L273.614 180.611ZM291.259 82.4748L120.802 -48.4432L291.259 82.4748ZM636.952 273.039L600.502 175.39L636.952 273.039ZM653.058 268.788L651.273 256.068L653.058 268.788ZM677.039 267.446L677.521 260.39L677.039 267.446ZM679.301 222.941L682.806 185.185L679.301 222.941ZM695.286 246.07L708.988 187.278L695.286 246.07ZM723.938 249.757L753.302 187.081L723.938 249.757ZM764.907 235.716L829.33 152.366L764.907 235.716ZM785.542 263.529L839.735 218.153L785.542 263.529ZM875.228 186.062L971.589 102.717L875.228 186.062ZM744.332 299.302L749.442 294.919L744.332 299.302ZM769.211 303.076L953.008 190.176L769.211 303.076ZM764.376 331.075L807.995 315.271L764.376 331.075ZM861.088 338.454L966.206 325.214L861.088 338.454ZM811.976 374.265L917.209 381.836L811.976 374.265ZM768.877 390.24L887.631 417.916L768.877 390.24ZM762.251 409.852L764.677 410.997L762.251 409.852ZM857.928 454.85L968.539 506.728L857.928 454.85ZM750.778 428.949L754.721 433.37L750.778 428.949ZM722.137 454.543L731.605 469.657L722.137 454.543ZM861.893 514.6L960.478 589.312L861.893 514.6ZM762.371 518.999L791.133 563.049L762.371 518.999ZM705.976 462.311L740.329 559.286L705.976 462.311ZM681.174 468.096L681.803 472.528L681.174 468.096ZM662.713 474.642L658.562 520.588L662.713 474.642ZM644.203 465.116L640.95 483.818L644.203 465.116ZM623.809 557.495L611.252 605.955L623.809 557.495ZM606.279 445.312L507.744 577.331L606.279 445.312ZM592.183 430.959L516.177 498.259L592.183 430.959ZM502.607 468.901L343.333 567.711L502.607 468.901ZM575.026 399.41L405.977 461.725L575.026 399.41ZM570.563 378.588L500.86 389.413L570.563 378.588ZM506.605 353.322L422.242 347.22L506.605 353.322ZM572.507 345.543L497.213 327.942L572.507 345.543ZM579.927 324.299L374.729 226.814L579.927 324.299ZM590.31 307.289L580.064 299.543L590.31 307.289ZM524.868 257.81L373.387 144.351L524.868 257.81ZM559.479 238.335L528.034 201.91L559.479 238.335ZM600.765 260.439L563.635 201.007L600.765 260.439Z" fill="black"/>
<path d="M600.765 260.439L563.635 201.006M461.069 124.471L96.4985 -296.644L461.069 124.471ZM522.678 133.63L463.977 42.0566L522.678 133.63ZM573.175 101.375L480.833 -161.809L573.175 101.375ZM641.218 177.85L614.154 -13.9031L641.218 177.85ZM684.859 140.9L696.935 -17.9077L684.859 140.9ZM728.287 104.694L823.065 -296.151L728.287 104.694ZM773.735 143.595L982.46 -296.151L773.735 143.595ZM857.654 113.29L1077.61 -177.603L857.654 113.29ZM1007.62 71.2609L1361.74 -235.124L1007.62 71.2609ZM993.062 163.793L1360.5 -61.7387L993.062 163.793ZM904.739 280.281L1365.81 113.75L904.739 280.281ZM1062.08 310.647L1266.7 283.661L1062.08 310.647ZM965.023 385.277L1360.5 415.461L965.023 385.277ZM988.653 441.439L1238.85 500.647L988.653 441.439ZM1062.26 549.321L1360.5 691.508L1062.26 549.321ZM1068.49 669.535L1360.5 893.664L1068.49 669.535ZM810.957 527.348L1275.47 1064.64L810.957 527.348ZM821.132 612.89L1104.05 1064.64L821.132 612.89ZM761.188 613.558L896.394 988.618L761.188 613.558ZM690.839 530.032L766.232 1064.64L690.839 530.032ZM654.657 577.704L622.462 1064.63L654.657 577.704ZM600.847 650.646L505.405 1064.64L600.847 650.646ZM581.718 552.701L400.271 940.306L581.718 552.701ZM433.085 673.846L139.444 1064.63L433.085 673.846ZM416.678 582.245L138.469 825.072L416.678 582.245ZM232.432 636.561L87.3147 727.116L232.432 636.561ZM282.77 504.904L0.180719 604.174L282.77 504.904ZM371.531 407.211L84.4943 447.071L371.531 407.211ZM291.412 337.868L83.3169 321.494L291.412 337.868ZM397.368 303.542L0.180719 210.637L397.368 303.542ZM273.614 180.611L49.7087 74.0493L273.614 180.611ZM291.259 82.4748L120.802 -48.4432L291.259 82.4748ZM636.952 273.039L600.502 175.39L636.952 273.039ZM653.058 268.788L651.273 256.068L653.058 268.788ZM677.039 267.446L677.521 260.39L677.039 267.446ZM679.301 222.941L682.806 185.185L679.301 222.941ZM695.286 246.07L708.988 187.278L695.286 246.07ZM723.938 249.757L753.303 187.081L723.938 249.757ZM764.907 235.716L829.33 152.366L764.907 235.716ZM785.542 263.529L839.735 218.153L785.542 263.529ZM875.228 186.062L971.589 102.717L875.228 186.062ZM744.332 299.302L749.442 294.919L744.332 299.302ZM769.211 303.076L953.008 190.176L769.211 303.076ZM764.376 331.075L807.995 315.271L764.376 331.075ZM861.088 338.454L966.206 325.214L861.088 338.454ZM811.976 374.265L917.209 381.836L811.976 374.265ZM768.877 390.24L887.631 417.916L768.877 390.24ZM762.251 409.852L764.677 410.997L762.251 409.852ZM857.928 454.85L968.539 506.728L857.928 454.85ZM750.778 428.949L754.721 433.37L750.778 428.949ZM722.137 454.543L731.605 469.657L722.137 454.543ZM861.893 514.6L960.478 589.312L861.893 514.6ZM762.371 518.999L791.133 563.049L762.371 518.999ZM705.976 462.311L740.329 559.286L705.976 462.311ZM681.174 468.096L681.803 472.528L681.174 468.096ZM662.713 474.642L658.562 520.588L662.713 474.642ZM644.203 465.116L640.95 483.818L644.203 465.116ZM623.809 557.495L611.252 605.955L623.809 557.495ZM606.279 445.312L507.744 577.331L606.279 445.312ZM592.183 430.959L516.177 498.259L592.183 430.959ZM502.607 468.901L343.333 567.711L502.607 468.901ZM575.026 399.41L405.977 461.725L575.026 399.41ZM570.563 378.588L500.86 389.413L570.563 378.588ZM506.605 353.322L422.242 347.22L506.605 353.322ZM572.507 345.543L497.213 327.942L572.507 345.543ZM579.927 324.299L374.729 226.814L579.927 324.299ZM590.31 307.289L580.064 299.543L590.31 307.289ZM524.868 257.81L373.387 144.351L524.868 257.81ZM559.479 238.335L528.033 201.91L559.479 238.335Z" stroke="white" stroke-opacity="0.6" stroke-width="2" stroke-miterlimit="10"/>
</g>
</svg>
