<?xml version="1.0" standalone="no"?>
<!DOCTYPE svg PUBLIC "-//W3C//DTD SVG 20010904//EN"
 "http://www.w3.org/TR/2001/REC-SVG-20010904/DTD/svg10.dtd">
<svg version="1.0" xmlns="http://www.w3.org/2000/svg"
 width="1408.000000pt" height="1408.000000pt" viewBox="0 0 1408.000000 1408.000000"
 preserveAspectRatio="xMidYMid meet">
<metadata>
Created by potrace 1.14, written by Peter Selinger 2001-2017
</metadata>
<g transform="translate(0.000000,1408.000000) scale(0.100000,-0.100000)"
fill="#000000" stroke="none">
<path d="M7765 14066 c-115 -36 -191 -95 -257 -198 -17 -25 -51 -138 -63 -203
-2 -16 -7 -40 -10 -52 -7 -30 -11 -50 -20 -98 -5 -22 -9 -44 -11 -50 -1 -5 -5
-23 -8 -40 -3 -16 -8 -41 -11 -55 -3 -14 -7 -36 -10 -50 -3 -14 -7 -36 -10
-50 -3 -14 -8 -36 -11 -50 -3 -14 -16 -79 -30 -145 -14 -66 -28 -131 -30 -145
-3 -14 -7 -36 -10 -50 -3 -14 -8 -38 -11 -55 -8 -47 -11 -60 -13 -60 -1 0 -3
-9 -5 -20 -5 -41 -14 -78 -19 -82 -3 -3 -33 -7 -68 -9 -129 -7 -176 -12 -187
-18 -6 -4 -11 -2 -11 4 0 6 -5 8 -11 4 -6 -4 -23 -8 -38 -9 -70 -6 -225 -25
-256 -31 -11 -2 -40 -7 -65 -10 -45 -6 -62 -9 -110 -19 -35 -7 -79 -14 -120
-21 -19 -3 -44 -8 -55 -11 -11 -3 -29 -7 -40 -9 -11 -1 -43 -9 -71 -17 -29 -7
-59 -12 -68 -11 -9 1 -16 -1 -16 -5 0 -4 -6 -8 -12 -9 -34 -2 -167 -39 -314
-87 -75 -25 -143 -45 -150 -45 -7 0 -19 -6 -26 -12 -7 -7 -20 -14 -28 -16 -25
-5 -204 -75 -214 -84 -6 -4 -18 -8 -28 -8 -10 0 -18 -4 -18 -10 0 -5 -9 -10
-19 -10 -11 0 -21 -4 -23 -9 -1 -5 -12 -11 -23 -13 -11 -1 -22 -5 -25 -8 -3
-3 -41 -23 -85 -46 -127 -65 -220 -117 -223 -126 -2 -4 -8 -8 -14 -8 -6 0 -44
-22 -85 -50 -41 -27 -77 -50 -80 -50 -2 0 -11 -6 -18 -12 -8 -7 -30 -24 -50
-38 -21 -14 -45 -32 -54 -40 -9 -8 -42 -34 -74 -58 -31 -23 -74 -57 -94 -75
-45 -39 -290 -284 -318 -318 -78 -93 -235 -312 -235 -328 0 -5 -3 -11 -8 -13
-13 -5 -77 -120 -141 -254 -35 -71 -67 -137 -72 -146 -5 -10 -9 -23 -9 -30 0
-7 -6 -25 -14 -39 -22 -44 -104 -302 -120 -379 -3 -14 -8 -36 -11 -50 -5 -23
-11 -52 -20 -105 -2 -11 -4 -20 -5 -20 -1 0 -3 -11 -5 -25 -2 -14 -6 -41 -9
-60 -44 -259 -54 -745 -20 -955 3 -16 7 -46 10 -65 3 -31 30 -181 33 -187 3
-7 10 -39 15 -68 2 -11 14 -54 25 -95 12 -41 23 -79 24 -85 7 -26 41 -123 52
-150 12 -28 26 -63 30 -75 1 -3 11 -27 23 -53 12 -27 22 -53 22 -58 0 -5 5 -9
10 -9 6 0 10 -5 10 -10 0 -34 177 -332 253 -427 191 -236 303 -350 537 -547
43 -36 190 -146 195 -146 4 0 82 -55 112 -80 7 -6 15 -10 18 -10 4 0 21 -11
39 -25 18 -14 38 -25 44 -25 6 0 12 -4 14 -8 2 -5 30 -23 63 -42 33 -18 68
-40 79 -49 10 -9 19 -14 20 -12 0 3 33 -14 71 -36 138 -81 672 -333 704 -333
6 0 11 -5 11 -12 0 -6 3 -9 6 -5 4 3 23 -1 43 -10 84 -36 328 -130 481 -184
30 -11 69 -26 85 -33 17 -8 48 -20 70 -27 22 -7 44 -17 50 -21 5 -4 14 -8 21
-8 6 0 29 -8 50 -17 22 -9 46 -18 54 -19 8 -2 23 -7 35 -12 33 -16 98 -40 125
-48 14 -4 27 -9 30 -13 3 -3 30 -14 60 -25 30 -10 66 -23 80 -29 14 -6 27 -11
30 -12 6 -1 167 -63 195 -74 11 -5 31 -13 45 -18 14 -6 39 -16 55 -24 17 -7
32 -13 35 -14 14 -5 49 -19 87 -36 24 -10 45 -19 48 -19 2 0 32 -13 65 -29 33
-16 60 -28 60 -26 0 2 40 -17 90 -41 49 -24 94 -44 100 -44 5 0 10 -3 10 -8 0
-4 15 -13 33 -21 17 -8 44 -23 60 -33 15 -11 27 -17 27 -13 0 3 6 1 13 -4 6
-6 55 -39 107 -74 52 -34 108 -74 124 -87 83 -72 182 -182 214 -239 8 -13 22
-39 33 -57 23 -42 71 -185 64 -192 -2 -3 1 -12 7 -20 8 -10 12 -63 12 -171 -1
-161 -10 -254 -25 -259 -5 -2 -7 -8 -4 -12 9 -14 -42 -156 -83 -235 -41 -79
-65 -114 -137 -200 -56 -68 -56 -68 -204 -194 -13 -12 -28 -21 -32 -21 -4 0
-14 -6 -21 -13 -13 -11 -24 -18 -80 -49 -13 -7 -25 -16 -28 -19 -10 -12 -179
-88 -265 -119 -132 -48 -126 -46 -164 -54 -13 -3 -47 -12 -75 -20 -28 -9 -67
-18 -86 -20 -19 -3 -53 -10 -75 -15 -22 -5 -60 -12 -85 -16 -47 -7 -67 -9
-190 -21 -79 -8 -647 -9 -715 -1 -59 7 -187 20 -207 20 -10 1 -18 4 -18 7 0 3
-21 6 -48 8 -40 2 -282 49 -347 68 -11 3 -33 8 -49 10 -16 3 -41 11 -55 16
-14 6 -29 10 -34 10 -18 -4 -360 116 -497 175 -68 29 -405 196 -410 203 -3 4
-20 15 -39 25 -29 15 -207 125 -236 147 -110 81 -297 223 -320 243 -110 95
-146 128 -218 197 -44 42 -106 90 -136 107 -134 70 -286 65 -412 -15 -57 -35
-941 -924 -986 -990 -50 -76 -73 -161 -69 -259 2 -44 9 -93 16 -110 27 -65 54
-115 71 -134 11 -11 19 -26 19 -32 0 -7 2 -10 5 -7 3 2 35 -25 73 -61 37 -36
98 -93 136 -126 38 -33 82 -71 97 -85 15 -14 39 -34 54 -44 14 -11 38 -30 53
-44 15 -13 44 -35 65 -49 20 -14 37 -29 37 -34 0 -4 8 -10 18 -13 9 -4 32 -20
51 -36 18 -17 36 -30 40 -30 3 0 22 -14 41 -30 19 -16 40 -30 47 -30 6 0 13
-4 15 -8 2 -4 53 -41 113 -80 61 -40 115 -77 122 -82 7 -6 15 -10 19 -10 3 0
18 -8 32 -19 15 -10 44 -28 65 -40 20 -11 52 -29 70 -39 176 -100 295 -161
301 -154 3 3 6 0 6 -6 0 -6 10 -14 22 -18 12 -4 67 -28 123 -53 55 -26 127
-58 160 -71 33 -13 65 -27 71 -32 7 -5 20 -10 30 -12 11 -2 44 -14 74 -26 116
-46 262 -94 450 -149 41 -13 81 -24 88 -27 13 -4 13 -29 -2 -94 -4 -14 -8 -36
-11 -50 -3 -14 -7 -36 -10 -50 -7 -28 -13 -59 -19 -92 -2 -13 -12 -59 -21
-103 -9 -44 -19 -89 -21 -100 -5 -28 -13 -66 -20 -95 -4 -14 -8 -36 -9 -50 -2
-14 -4 -25 -5 -25 -1 0 -3 -7 -5 -15 -1 -8 -8 -42 -15 -75 -7 -33 -14 -67 -15
-75 -5 -31 -16 -87 -30 -145 -8 -33 -19 -85 -25 -115 -5 -30 -13 -66 -16 -80
-3 -14 -5 -41 -4 -60 1 -19 1 -44 1 -55 -1 -34 29 -128 55 -173 51 -88 138
-157 241 -193 51 -17 101 -18 871 -19 502 0 838 4 870 10 76 14 153 54 211
109 28 27 51 52 51 56 0 3 7 13 15 21 8 9 15 24 15 35 0 10 4 19 9 19 9 0 24
32 26 55 0 6 6 35 13 65 7 30 14 66 17 80 3 14 7 36 10 50 8 36 14 71 20 105
3 17 8 38 11 47 3 9 7 27 9 40 8 39 45 222 51 248 3 14 8 39 11 55 8 46 11 60
13 60 1 0 3 9 4 20 2 11 6 34 10 50 3 17 8 39 10 50 4 19 34 162 41 195 2 8 4
20 4 26 1 7 16 12 34 13 57 2 212 15 297 26 30 4 71 8 90 10 38 4 112 15 140
20 9 2 35 6 56 10 79 12 100 16 149 25 28 5 59 11 70 13 11 2 31 7 45 10 31 8
223 51 230 52 3 0 11 4 18 8 6 5 12 6 12 3 0 -2 33 4 73 16 39 11 79 21 87 23
8 2 15 4 15 5 0 1 7 3 15 5 20 5 231 73 250 82 8 3 20 7 25 8 11 3 137 51 170
65 11 5 43 19 70 31 28 12 56 22 63 22 6 0 12 4 12 9 0 4 5 8 11 8 10 0 215
100 320 157 75 41 260 157 337 213 35 25 73 50 84 57 11 6 23 15 27 20 3 5 24
22 46 39 21 16 47 36 56 44 9 8 43 38 75 65 32 28 77 69 101 92 24 23 43 40
43 37 0 -3 15 12 33 33 17 20 46 51 62 68 51 52 98 107 168 195 37 47 71 90
75 95 18 23 113 165 114 172 1 5 10 17 20 27 10 11 18 25 18 32 0 7 3 14 8 16
4 1 15 19 26 38 49 92 126 240 125 243 -1 1 10 27 24 57 40 90 105 258 112
290 2 8 11 42 21 75 10 33 17 63 16 68 -1 4 2 7 6 7 4 0 8 8 8 18 2 25 13 78
23 104 5 13 9 26 9 31 0 7 14 86 17 97 1 3 5 28 10 55 4 28 9 59 11 70 3 11 7
40 10 65 3 25 7 61 9 80 18 147 25 513 12 655 -14 155 -17 182 -22 205 -3 14
-7 39 -10 55 -7 41 -15 78 -30 146 -2 11 -7 29 -10 39 -3 10 -7 27 -9 37 -2
10 -10 38 -17 63 -7 25 -13 48 -15 53 -1 4 -3 9 -4 12 -1 3 -3 8 -5 13 -1 4
-5 15 -9 24 -4 9 -9 22 -10 30 -2 7 -8 26 -14 41 -7 16 -12 31 -12 33 0 17
-131 289 -141 292 -5 2 -9 9 -9 15 0 12 -125 211 -147 232 -8 8 -11 15 -6 15
4 0 3 4 -3 8 -6 4 -30 32 -53 62 -24 30 -66 82 -95 114 -53 62 -246 257 -246
249 0 -2 -11 6 -23 19 -63 61 -183 158 -196 158 -7 0 -9 5 -6 10 3 6 1 10 -5
10 -6 0 -37 19 -68 43 -47 36 -151 108 -220 152 -92 59 -154 95 -162 95 -6 0
-10 5 -10 11 0 5 -4 7 -10 4 -5 -3 -10 -1 -10 4 0 6 -4 11 -9 11 -6 0 -36 15
-68 34 -32 19 -60 33 -63 33 -3 -1 -18 8 -35 19 -32 22 -395 201 -455 224 -19
7 -39 17 -45 21 -5 4 -66 30 -135 59 -69 28 -139 58 -157 66 -17 8 -34 14 -38
14 -3 0 -25 8 -48 18 -61 27 -155 64 -167 66 -3 1 -18 7 -35 13 -57 23 -90 36
-95 38 -26 6 -61 19 -88 31 -18 9 -40 17 -50 19 -14 3 -135 46 -222 78 -8 3
-78 28 -155 57 -77 28 -149 54 -160 59 -11 5 -60 23 -110 41 -49 17 -98 35
-107 41 -10 5 -22 9 -27 9 -5 0 -26 8 -47 17 -22 9 -44 17 -49 19 -10 1 -88
32 -140 55 -11 4 -85 36 -165 69 -80 34 -149 66 -154 71 -6 5 -18 9 -27 9 -10
0 -19 4 -21 8 -1 4 -37 25 -78 46 -41 21 -95 51 -120 67 -25 16 -52 32 -60 36
-15 6 -80 52 -90 63 -3 3 -16 13 -30 21 -49 31 -174 155 -221 219 -27 36 -52
70 -56 75 -26 33 -86 176 -98 234 -3 11 -7 31 -10 44 -15 63 -26 262 -16 281
2 5 6 28 7 50 2 23 6 51 9 64 3 12 7 32 10 44 10 47 46 146 60 164 8 10 15 24
15 31 1 38 151 215 245 289 28 21 53 44 57 49 4 6 8 6 8 1 0 -5 10 0 23 11 48
43 312 162 396 179 14 3 28 7 33 10 4 3 16 7 25 9 10 2 52 11 93 20 139 31
157 34 211 40 25 3 56 8 69 10 56 11 228 18 405 18 233 0 305 -3 327 -14 10
-6 19 -5 23 1 4 6 11 8 16 4 5 -3 31 -7 57 -9 44 -4 85 -10 157 -22 17 -2 44
-6 60 -8 26 -3 131 -23 218 -40 28 -6 178 -42 207 -50 8 -3 35 -9 60 -15 25
-6 52 -13 60 -17 8 -3 20 -7 25 -8 19 -4 220 -73 250 -86 17 -6 35 -13 40 -15
33 -9 81 -30 87 -39 4 -5 8 -7 8 -3 0 12 333 -146 445 -210 28 -16 68 -39 90
-52 22 -12 72 -43 110 -68 85 -56 106 -69 125 -79 8 -4 21 -13 29 -20 15 -15
122 -91 155 -110 11 -7 17 -13 12 -13 -5 0 9 -12 31 -27 23 -16 64 -48 93 -73
64 -54 90 -73 90 -65 0 4 7 0 15 -7 33 -29 45 -37 94 -62 28 -15 52 -26 53
-25 2 0 26 -3 53 -7 28 -4 52 -8 55 -7 3 0 30 3 62 7 102 10 189 62 292 175
17 18 60 64 96 101 36 37 126 131 200 209 74 78 171 179 215 225 44 46 117
122 161 168 45 47 95 105 110 129 16 24 32 46 37 47 4 2 4 8 1 13 -3 6 -1 15
4 22 27 34 38 189 18 263 -28 107 -80 180 -191 269 -28 22 -57 47 -65 55 -8 8
-37 33 -65 55 -27 21 -53 44 -57 50 -4 5 -8 7 -8 3 0 -5 -8 0 -18 10 -25 23
-49 42 -92 72 -19 13 -39 28 -45 33 -32 26 -206 147 -233 161 -18 9 -32 21
-32 26 0 6 -4 10 -9 10 -10 0 -142 79 -151 90 -3 4 -12 9 -20 13 -8 4 -33 18
-55 32 -22 14 -47 28 -55 32 -8 4 -46 26 -85 48 -38 23 -85 48 -102 56 -18 7
-33 18 -33 22 0 5 -4 6 -9 3 -5 -4 -11 -3 -13 1 -3 8 -104 59 -300 152 -48 22
-89 41 -92 41 -3 0 -30 12 -60 26 -30 14 -60 27 -68 28 -7 1 -39 14 -71 29
-32 15 -60 27 -64 27 -3 0 -54 18 -114 41 -60 22 -114 42 -121 43 -41 9 -46
16 -36 59 12 51 17 74 23 107 3 14 7 36 10 50 3 14 7 36 10 50 3 14 16 74 29
135 14 60 22 113 20 117 -3 5 0 8 6 8 6 0 9 3 7 8 -3 4 5 55 18 115 13 59 20
107 18 107 -3 0 -1 6 5 13 6 6 10 15 11 20 0 7 14 97 16 107 1 3 5 23 9 45 4
22 12 54 16 70 5 17 12 48 15 70 3 22 11 58 17 80 6 22 12 54 12 72 1 17 4 34
7 37 3 3 4 35 3 70 -3 63 -32 157 -63 206 -25 40 -113 130 -127 130 -7 0 -14
3 -16 8 -1 4 -28 18 -58 32 l-55 25 -845 2 c-659 1 -854 -1 -885 -11z"/>
</g>
</svg>
